<svg xmlns="http://www.w3.org/2000/svg" width="1600" height="1000" viewBox="0 0 1600 1000">
  <rect width="1600" height="1000" fill="#24211d"/>
  <rect x="70" y="70" width="940" height="860" rx="40" fill="#f3f0ea"/>
  <rect x="1050" y="70" width="480" height="860" rx="40" fill="#fffdf8"/>
  <text x="120" y="155" fill="#24211d" font-family="Georgia,serif" font-size="45">Three ways into the idea</text>
  <g transform="translate(120 210)">
    <rect width="260" height="520" rx="26" fill="#fffdf8"/>
    <rect width="260" height="250" rx="26" fill="#495a55"/>
    <circle cx="175" cy="105" r="72" fill="#d6a873" opacity=".6"/>
    <path d="M0 180 Q80 95 160 190 T260 160 V250 H0Z" fill="#18201d" opacity=".7"/>
    <text x="24" y="305" fill="#24211d" font-family="Georgia,serif" font-size="27">Human distance</text>
    <rect x="24" y="335" width="200" height="10" rx="5" fill="#ded8cf"/><rect x="24" y="357" width="160" height="10" rx="5" fill="#ded8cf"/>
  </g>
  <g transform="translate(410 210)">
    <rect width="260" height="520" rx="26" fill="#fffdf8"/>
    <rect width="260" height="250" rx="26" fill="#8f3522"/>
    <rect x="75" y="50" width="110" height="150" rx="55" fill="#f1c19a" opacity=".72" transform="rotate(20 130 125)"/>
    <text x="24" y="305" fill="#24211d" font-family="Georgia,serif" font-size="27">Unsaid object</text>
    <rect x="24" y="335" width="200" height="10" rx="5" fill="#ded8cf"/><rect x="24" y="357" width="145" height="10" rx="5" fill="#ded8cf"/>
  </g>
  <g transform="translate(700 210)">
    <rect width="260" height="520" rx="26" fill="#fffdf8"/>
    <rect width="260" height="250" rx="26" fill="#d85432"/>
    <g fill="#24211d"><circle cx="55" cy="65" r="16"/><circle cx="105" cy="65" r="16"/><circle cx="155" cy="65" r="16"/><circle cx="205" cy="65" r="16"/><circle cx="55" cy="115" r="16"/><circle cx="105" cy="115" r="16"/><rect x="137" y="97" width="36" height="36" transform="rotate(22 155 115)"/><circle cx="205" cy="115" r="16"/><circle cx="55" cy="165" r="16"/><circle cx="105" cy="165" r="16"/><circle cx="155" cy="165" r="16"/><circle cx="205" cy="165" r="16"/></g>
    <text x="24" y="305" fill="#24211d" font-family="Georgia,serif" font-size="27">Broken signal</text>
    <rect x="24" y="335" width="200" height="10" rx="5" fill="#ded8cf"/><rect x="24" y="357" width="175" height="10" rx="5" fill="#ded8cf"/>
  </g>
  <text x="1110" y="155" fill="#9b3c25" font-family="system-ui,sans-serif" font-size="18" letter-spacing="3">WORKING INTENT</text>
  <text x="1110" y="210" fill="#24211d" font-family="Georgia,serif" font-size="39">Develop the idea</text>
  <text x="1110" y="255" fill="#24211d" font-family="Georgia,serif" font-size="39">before the prompt.</text>
  <g fill="#f3f0ea"><rect x="1110" y="320" width="360" height="62" rx="16"/><rect x="1110" y="396" width="360" height="62" rx="16"/><rect x="1110" y="472" width="360" height="62" rx="16"/></g>
  <rect x="1110" y="760" width="360" height="105" rx="25" fill="#24211d"/><circle cx="1415" cy="812" r="27" fill="#d85432"/>
</svg>

