<svg xmlns="http://www.w3.org/2000/svg" viewBox="0 0 1200 900" role="img" aria-label="FIFA World Cup bracket preview">
  <rect width="1200" height="900" fill="#f0ede8"/>
  <rect x="76" y="78" width="1048" height="744" rx="28" fill="#fff" stroke="#d1d5db" stroke-width="4"/>
  <text x="600" y="154" text-anchor="middle" font-family="Inter, Arial, sans-serif" font-size="58" font-weight="800" fill="#b45309">World Cup Bracket</text>
  <text x="600" y="202" text-anchor="middle" font-family="Inter, Arial, sans-serif" font-size="22" font-weight="700" letter-spacing="6" fill="#6b7280">LIVE KNOCKOUT PREDICTOR</text>
  <g fill="none" stroke="#3b5bdb" stroke-width="10" stroke-linecap="round" stroke-linejoin="round">
    <path d="M160 315h92v70h88"/>
    <path d="M160 455h92v-70"/>
    <path d="M160 555h92v70h88"/>
    <path d="M160 695h92v-70"/>
    <path d="M340 385h86v120h88"/>
    <path d="M340 625h86V505"/>
    <path d="M1040 315h-92v70h-88"/>
    <path d="M1040 455h-92v-70"/>
    <path d="M1040 555h-92v70h-88"/>
    <path d="M1040 695h-92v-70"/>
    <path d="M860 385h-86v120h-88"/>
    <path d="M860 625h-86V505"/>
  </g>
  <g fill="#fff" stroke="#d1d5db" stroke-width="4">
    <rect x="104" y="286" width="112" height="58" rx="9"/>
    <rect x="104" y="426" width="112" height="58" rx="9"/>
    <rect x="104" y="526" width="112" height="58" rx="9"/>
    <rect x="104" y="666" width="112" height="58" rx="9"/>
    <rect x="310" y="356" width="112" height="58" rx="9"/>
    <rect x="310" y="596" width="112" height="58" rx="9"/>
    <rect x="978" y="286" width="112" height="58" rx="9"/>
    <rect x="978" y="426" width="112" height="58" rx="9"/>
    <rect x="978" y="526" width="112" height="58" rx="9"/>
    <rect x="978" y="666" width="112" height="58" rx="9"/>
    <rect x="778" y="356" width="112" height="58" rx="9"/>
    <rect x="778" y="596" width="112" height="58" rx="9"/>
  </g>
  <rect x="514" y="456" width="172" height="98" rx="14" fill="#fff" stroke="#b45309" stroke-width="6"/>
  <rect x="486" y="310" width="228" height="116" rx="20" fill="#fff" stroke="#b45309" stroke-width="7"/>
  <text x="600" y="384" text-anchor="middle" font-family="Apple Color Emoji, Segoe UI Emoji, sans-serif" font-size="56">🏆</text>
  <circle cx="600" cy="505" r="13" fill="#15803d"/>
  <text x="600" y="742" text-anchor="middle" font-family="Inter, Arial, sans-serif" font-size="26" font-weight="700" fill="#374151">Pick winners. Lock results. Follow the latest bracket.</text>
</svg>
